<?xml version="1.0" standalone="no"?><!DOCTYPE svg PUBLIC "-//W3C//DTD SVG 1.1//EN" "http://www.w3.org/Graphics/SVG/1.1/DTD/svg11.dtd"><svg t="1499937769273" class="icon" style="" viewBox="0 0 1024 1024" version="1.1" xmlns="http://www.w3.org/2000/svg" p-id="1013" xmlns:xlink="http://www.w3.org/1999/xlink" width="64" height="64"><defs><style type="text/css"></style></defs><path d="M512 66C264.6 66 64 266.6 64 514c0 247.4 200.6 448 448 448 247.4 0 448-200.6 448-448C960 266.6 759.4 66 512 66zM728.6 665c3 3 4.6 7 4.6 11.2 0 4.2-1.6 8.4-4.6 11.2l-43.2 43.4c-3.2 3.2-7.2 4.6-11.2 4.6-4 0-8.2-1.6-11.2-4.6L512 579.6l-150.8 151.4c-3 3.2-7.2 4.6-11.2 4.6-4 0-8.2-1.6-11.2-4.6l-43.2-43.4c-3-3-4.6-7-4.6-11.2 0-4.2 1.6-8.4 4.6-11.2l151.4-152-151.8-150c-6.2-6.2-6.2-16.4 0-22.6l43.2-43.4c3-3 7-4.6 11.2-4.6 4.2 0 8.2 1.6 11.2 4.6l151.4 149.4 151.4-149.4c3-3 7-4.6 11.2-4.6 4.2 0 8.2 1.6 11.2 4.6l43.2 43.4c6.2 6.2 6.2 16.4 0 22.6l-151.8 150L728.6 665z" p-id="1014" fill="#E54348"></path></svg>